<?xml version="1.0" encoding="utf-8"?>
<!-- Generator: Adobe Illustrator 24.1.2, SVG Export Plug-In . SVG Version: 6.00 Build 0)  -->
<svg version="1.1" id="Layer_1" xmlns="http://www.w3.org/2000/svg" xmlns:xlink="http://www.w3.org/1999/xlink" 
	x="0px" y="0px" width="24px" height="24px" stroke="white" fill="white"
	 viewBox="0 0 16 16" style="enable-background:new 0 0 16 16;" xml:space="preserve">
<style type="text/css">
	.st0{fill:none;stroke-linecap:round;stroke-linejoin:round;stroke-miterlimit:10;}
	.st1{stroke:none;}
</style>
<path class="st0" d="M12,8.5H5l-3,3v-4C1.2,7.5,0.5,6.8,0.5,6V2c0-0.8,0.7-1.5,1.5-1.5h10c0.8,0,1.5,0.7,1.5,1.5v5
	C13.5,7.8,12.8,8.5,12,8.5z"/>
<path class="st0" d="M5.5,11c0,0.8,0.7,1.5,1.5,1.5h4l3,3v-3c0.8,0,1.5-0.7,1.5-1.5V7"/>
<g>
	<path class="st1" d="M10,3.6c-0.6,0-1,0.4-1,1s0.4,1,1,1s1-0.4,1-1S10.6,3.6,10,3.6L10,3.6z"/>
</g>
<g>
	<path class="st1" d="M7,3.6c-0.6,0-1,0.4-1,1s0.4,1,1,1s1-0.4,1-1S7.6,3.6,7,3.6L7,3.6z"/>
</g>
<g>
	<path class="st1" d="M4,3.6c-0.6,0-1,0.4-1,1s0.4,1,1,1s1-0.4,1-1S4.6,3.6,4,3.6L4,3.6z"/>
</g>
</svg>
