<?xml version="1.0" encoding="utf-8"?>
<!-- Generator: Adobe Illustrator 24.1.2, SVG Export Plug-In . SVG Version: 6.00 Build 0)  -->
<svg version="1.1" id="Layer_1" xmlns="http://www.w3.org/2000/svg" xmlns:xlink="http://www.w3.org/1999/xlink"
	x="0px" y="0px" width="24px" height="24px" stroke="white"
	viewBox="0 0 16 16" style="enable-background:new 0 0 16 16;" xml:space="preserve">
<style type="text/css">
	.st0{fill:none;stroke-miterlimit:10;}
	.st1{fill:none;stroke-linecap:round;stroke-miterlimit:10;}
</style>
<path class="st0" d="M3,12.5H2.5c-0.6,0-1-0.4-1-1v-10c0-0.6,0.4-1,1-1h8c0.6,0,1,0.4,1,1V2"/>
<path class="st0" d="M5.5,3.5h8c0.6,0,1,0.4,1,1v10c0,0.6-0.4,1-1,1h-8c-0.6,0-1-0.4-1-1v-10C4.5,3.9,4.9,3.5,5.5,3.5z"/>
<line class="st1" x1="7" y1="6.5" x2="12" y2="6.5"/>
<line class="st1" x1="7" y1="9.5" x2="12" y2="9.5"/>
<line class="st1" x1="7" y1="12.5" x2="12" y2="12.5"/>
</svg>
