<?xml version="1.0" encoding="utf-8"?>
<!-- Generator: Adobe Illustrator 24.1.2, SVG Export Plug-In . SVG Version: 6.00 Build 0)  -->
<svg version="1.1" id="Layer_1" xmlns="http://www.w3.org/2000/svg" xmlns:xlink="http://www.w3.org/1999/xlink" x="0px" y="0px"
	 viewBox="0 0 64 64" style="enable-background:new 0 0 64 64;" xml:space="preserve">
<style type="text/css">
	.st0{fill:none;stroke-width:1.5;stroke-miterlimit:10;}
</style>
<path class="st0" d="M32,8.3c6,0,11,5.1,11.2,11.3c0,1-0.2,2-0.4,3.1c0.4-0.1,0.7,0,1,0.3c0.7,0.6,0.7,1.8-0.1,3.2
	c-0.8,1.3-1.7,2.1-2.5,1.6c-2,4.8-5.4,8.6-9.2,8.6s-7.1-3.8-9.2-8.6C22,28,21.1,27.3,20.3,26c-0.8-1.4-0.8-2.5-0.1-3.2
	c0.3-0.3,0.6-0.4,1-0.3c-0.2-1.1-0.4-2.1-0.4-3.1C21,13.4,26,8.3,32,8.3z"/>
<path class="st0" d="M40.5,39.2c-2.3,2.3-5,3.2-8.5,3.2s-6.2-1-8.5-3.2"/>
<path class="st0" d="M37.8,33.1v3.4c1.8,5,11.3,5,14,5c1,0.5,1.8,1.8,2.4,3.3C49.9,52.5,41.5,57.8,32,57.8S14.1,52.5,9.7,44.8
	c0.6-1.5,1.4-2.7,2.4-3.3c2.7,0,12.2-0.1,14-5v-3.4"/>
</svg>
