<?xml version="1.0" encoding="UTF-8"?>
<!DOCTYPE svg PUBLIC "-//W3C//DTD SVG 1.1//EN" "http://www.w3.org/Graphics/SVG/1.1/DTD/svg11.dtd">
<!-- Creator: CorelDRAW -->
<svg xmlns="http://www.w3.org/2000/svg" xml:space="preserve" width="40px" height="40px" version="1.1" style="shape-rendering:geometricPrecision; text-rendering:geometricPrecision; image-rendering:optimizeQuality; fill-rule:evenodd; clip-rule:evenodd"
viewBox="0 0 14.81 14.82"
 xmlns:xlink="http://www.w3.org/1999/xlink"
 xmlns:xodm="http://www.corel.com/coreldraw/odm/2003">
 <defs>
  <style type="text/css">
   <![CDATA[
    .fil1 {fill:white}
    .fil0 {fill:url(#id0);fill-rule:nonzero}
   ]]>
  </style>
  <linearGradient id="id0" gradientUnits="userSpaceOnUse" x1="1.85" y1="1.85" x2="12.59" y2="12.59">
   <stop offset="0" style="stop-opacity:1; stop-color:#00A000"/>
   <stop offset="1" style="stop-opacity:1; stop-color:#007000"/>
  </linearGradient>
 </defs>
 <g id="Layer_x0020_1">
  <metadata id="CorelCorpID_0Corel-Layer"/>
  <path class="fil0" d="M0 7.41c0,-3.49 0,-5.24 1.08,-6.33 1.09,-1.08 2.84,-1.08 6.33,-1.08 3.49,0 5.24,0 6.32,1.08 1.08,1.09 1.08,2.84 1.08,6.33 0,3.49 0,5.24 -1.08,6.32 -1.08,1.09 -2.83,1.09 -6.32,1.09 -3.49,0 -5.24,0 -6.33,-1.09 -1.08,-1.08 -1.08,-2.83 -1.08,-6.32z"/>
  <path class="fil1" d="M3.22 5.54c-0.34,0.19 -0.45,0.63 -0.26,0.97 0.2,0.34 0.63,0.45 0.97,0.26l1.46 -0.84c0.27,-0.16 0.63,-0.07 0.79,0.21 0.16,0.28 0.06,0.63 -0.21,0.79l-3.02 1.75c-0.34,0.19 -0.46,0.63 -0.26,0.97 0.19,0.34 0.63,0.45 0.97,0.26l3.02 -1.75c0.27,-0.16 0.63,-0.06 0.79,0.22 0.16,0.27 0.07,0.63 -0.21,0.79l-0.45 0.26c-0.34,0.19 -0.46,0.63 -0.26,0.97 0.2,0.34 0.63,0.46 0.97,0.26l2.68 -1.55c1.58,-0.91 2.12,-2.92 1.21,-4.5 -0.87,-1.51 -2.75,-2.06 -4.29,-1.32 -0.03,0.02 -0.06,0.03 -0.1,0.05l-3.8 2.2zm1.43 5.96c-0.2,-0.34 -0.08,-0.78 0.26,-0.97l0.11 -0.07c0.34,-0.19 0.78,-0.08 0.97,0.26 0.2,0.34 0.08,0.78 -0.26,0.97l-0.11 0.07c-0.34,0.19 -0.77,0.08 -0.97,-0.26zm3.19 -4.16c0.28,-0.16 0.38,-0.51 0.22,-0.79 -0.17,-0.28 -0.52,-0.38 -0.8,-0.22 -0.28,0.17 -0.37,0.52 -0.21,0.8 0.16,0.28 0.51,0.37 0.79,0.21zm1.56 -1.57c0.16,0.28 0.06,0.64 -0.22,0.8 -0.27,0.16 -0.63,0.06 -0.79,-0.22 -0.16,-0.27 -0.06,-0.63 0.21,-0.79 0.28,-0.16 0.64,-0.07 0.8,0.21zm1.13 0.02c0.27,-0.16 0.37,-0.51 0.21,-0.79 -0.16,-0.28 -0.52,-0.38 -0.79,-0.21 -0.28,0.16 -0.38,0.51 -0.22,0.79 0.16,0.28 0.52,0.37 0.8,0.21z"/>
 </g>
</svg>
