<?xml version="1.0" encoding="utf-8"?>
<!-- Generator: Adobe Illustrator 24.1.2, SVG Export Plug-In . SVG Version: 6.00 Build 0)  -->
<svg version="1.1" id="Layer_1" xmlns="http://www.w3.org/2000/svg" xmlns:xlink="http://www.w3.org/1999/xlink" x="0px" y="0px"
	 viewBox="0 0 16 16" style="enable-background:new 0 0 16 16;" xml:space="preserve">
<style type="text/css">
	.st0{fill:none;stroke:#000000;stroke-linecap:round;stroke-miterlimit:10;}
	.st1{fill:none;stroke:#000000;stroke-linecap:round;stroke-linejoin:round;stroke-miterlimit:10;}
</style>
<line class="st0" x1="0.5" y1="8.5" x2="2.5" y2="8.5"/>
<line class="st0" x1="1.5" y1="11.5" x2="1.5" y2="8.5"/>
<line class="st0" x1="8.5" y1="8.5" x2="10.5" y2="8.5"/>
<line class="st0" x1="9.5" y1="11.5" x2="9.5" y2="8.5"/>
<line class="st0" x1="4.5" y1="8.5" x2="6.5" y2="11.5"/>
<line class="st0" x1="6.5" y1="8.5" x2="4.5" y2="11.5"/>
<path class="st1" d="M4.5,5.5V2c0-0.8,0.7-1.5,1.5-1.5h4.5l5,5c0,0.1,0,8.5,0,8.5c0,0.8-0.7,1.5-1.5,1.5H6c-0.7,0-1.3-0.4-1.5-1"/>
<path class="st1" d="M10.5,0.5V4c0,0.8,0.7,1.5,1.5,1.5h3.5"/>
</svg>
