<?xml version="1.0" encoding="utf-8"?>
<!-- Generator: Adobe Illustrator 24.1.2, SVG Export Plug-In . SVG Version: 6.00 Build 0)  -->
<svg version="1.1" id="Layer_1" xmlns="http://www.w3.org/2000/svg" xmlns:xlink="http://www.w3.org/1999/xlink" x="0px" y="0px"
	 viewBox="0 0 16 16" style="enable-background:new 0 0 16 16;" xml:space="preserve">
<style type="text/css">
	.st0{fill:none;stroke:#000000;stroke-linecap:round;stroke-linejoin:round;stroke-miterlimit:10;}
	.st1{fill:none;stroke:#000000;stroke-miterlimit:10;}
</style>
<path class="st0" d="M4,0.5C4,0.5,1,1,1,3c0,0.5,0.5,3.1,0.5,3.6c0,0.9-1,1.4-1,1.4s1,0.5,1,1.4C1.5,9.9,1,12.5,1,13
	c0,2,3,2.5,3,2.5"/>
<path class="st0" d="M12,0.5c0,0,3,0.5,3,2.5c0,0.5-0.5,3.1-0.5,3.6c0,0.9,1,1.4,1,1.4s-1,0.5-1,1.4c0,0.5,0.5,3.1,0.5,3.6
	c0,2-3,2.5-3,2.5"/>
<polygon class="st1" points="11.1,7.7 12,6.6 11.2,5.3 9.7,5.5 9.3,5.3 8.8,3.9 7.2,3.9 6.7,5.3 6.3,5.5 4.8,5.3 4,6.6 4.9,7.7 
	4.9,8.3 4,9.4 4.8,10.8 6.3,10.5 6.7,10.8 7.2,12.1 8.8,12.1 9.3,10.8 9.7,10.5 11.2,10.8 12,9.4 11.1,8.3 "/>
<circle class="st1" cx="8" cy="8" r="0.5"/>
</svg>
