<?xml version="1.0" encoding="utf-8"?>
<!-- Generator: Adobe Illustrator 24.1.2, SVG Export Plug-In . SVG Version: 6.00 Build 0)  -->
<svg version="1.1" id="Layer_1" xmlns="http://www.w3.org/2000/svg" xmlns:xlink="http://www.w3.org/1999/xlink" x="0px" y="0px"
	 viewBox="0 0 16 16" style="enable-background:new 0 0 16 16;" xml:space="preserve">
<style type="text/css">
	.st0{fill:none;stroke:#000000;stroke-linecap:round;stroke-linejoin:round;stroke-miterlimit:9.9999;}
</style>
<path class="st0" d="M3.5,0.5l7,7c0,0,1.3-1.6,1.8-2S13.1,5,13.5,5c1.1,0,2,0.9,2,2"/>
<path class="st0" d="M15.5,7v7c0,0.8-0.7,1.5-1.5,1.5H2c-0.8,0-1.5-0.7-1.5-1.5V2c0-0.8,0.7-1.5,1.5-1.5h1.5l10.8,4.6"/>
<line class="st0" x1="10" y1="12.5" x2="13" y2="12.5"/>
<line class="st0" x1="10" y1="10.5" x2="13" y2="10.5"/>
<polygon points="6.8,13.5 4.9,9.8 3.4,10.9 2.5,4.3 4.4,8.4 6,7.3 "/>
</svg>
