<?xml version="1.0" encoding="utf-8"?>
<!-- Generator: Adobe Illustrator 24.1.2, SVG Export Plug-In . SVG Version: 6.00 Build 0)  -->
<svg version="1.1" id="Layer_1" xmlns="http://www.w3.org/2000/svg" xmlns:xlink="http://www.w3.org/1999/xlink" x="0px" y="0px"
	 viewBox="0 0 16 16" style="enable-background:new 0 0 16 16;" xml:space="preserve">
<style type="text/css">
	.st0{fill:none;stroke:#000000;stroke-linecap:round;stroke-miterlimit:10;}
</style>
<circle class="st0" cx="3" cy="6.6" r="1.1"/>
<path class="st0" d="M5.5,9.7c0,1.1-5,1.1-5,0S1.6,7.8,3,7.8S5.5,8.6,5.5,9.7z"/>
<circle class="st0" cx="8" cy="11.6" r="1.1"/>
<path class="st0" d="M10.5,14.7c0,1.1-5,1.1-5,0s1.1-1.9,2.5-1.9S10.5,13.6,10.5,14.7z"/>
<circle class="st0" cx="8" cy="1.6" r="1.1"/>
<path class="st0" d="M10.5,4.7c0,1.1-5,1.1-5,0S6.6,2.8,8,2.8S10.5,3.6,10.5,4.7z"/>
<circle class="st0" cx="13" cy="6.6" r="1.1"/>
<path class="st0" d="M15.5,9.7c0,1.1-5,1.1-5,0s1.1-1.9,2.5-1.9S15.5,8.6,15.5,9.7z"/>
</svg>
