<?xml version="1.0" encoding="utf-8"?>
<!-- Generator: Adobe Illustrator 24.1.2, SVG Export Plug-In . SVG Version: 6.00 Build 0)  -->
<svg version="1.1" id="Layer_1" xmlns="http://www.w3.org/2000/svg" xmlns:xlink="http://www.w3.org/1999/xlink" x="0px" y="0px" 
	 viewBox="0 0 16 16" style="enable-background:new 0 0 16 16;" xml:space="preserve">
<style type="text/css">
	.st0{fill:none;stroke:#AA4383;stroke-width:1.25;stroke-linecap:round;stroke-linejoin:round;stroke-miterlimit:10;}
	.st1{fill:none;stroke:#AA4383;stroke-width:1.25;stroke-linejoin:round;stroke-miterlimit:10;}
</style>
<path class="st0" d="M15,10.4h-2c-0.3,0-0.5-0.2-0.5-0.5V2.6c0-0.3,0.2-0.5,0.5-0.5h2c0.3,0,0.5,0.2,0.5,0.5v7.3
	C15.5,10.2,15.3,10.4,15,10.4z"/>
<path class="st1" d="M4,9.5H1.6c-0.6,0-1-0.4-1-1l0,0c0-0.6,0.3-0.8,0.9-1c0,0-0.3-0.4-0.3-1l0,0c0-0.6,0.3-0.9,0.8-1
	c0,0-0.5-0.4-0.5-1l0,0c0-0.6,0.2-1,0.7-1.1c0,0-0.3-0.3-0.3-0.9l0,0c0-0.6,0.4-1,1-1h3.8c0.5,0,0.9,0.2,1.3,0.4
	c0.5,0.2,1.6,0.2,2.2,0.2c0,0,0.3,0,0.3,0.2v6.6c0,0-0.1,0.1-0.2,0.1H8.5C8.3,9,8.2,9.2,8.2,9.2s-0.4,1-0.7,1.3
	c-0.7,0.9-1.4,2-1.4,3.1c0,0.4-0.4,0.9-0.8,0.9l0,0c-0.7,0-1.2-0.7-1.3-1.6c0-0.4,0.2-1.5,0.6-2.3c0.1-0.3,0.1-0.6,0-0.8
	C4.4,9.7,4.3,9.5,4,9.5z"/>
</svg>
