<?xml version="1.0" encoding="utf-8"?>
<!-- Generator: Adobe Illustrator 24.1.2, SVG Export Plug-In . SVG Version: 6.00 Build 0)  -->
<svg version="1.1" id="Layer_1" xmlns="http://www.w3.org/2000/svg" xmlns:xlink="http://www.w3.org/1999/xlink" x="0px" y="0px" 
	 viewBox="0 0 16 16" style="enable-background:new 0 0 16 16;" xml:space="preserve">
<style type="text/css">
	.st0{fill:#D00000;}
	.st1{fill:none;stroke:#FFFFFF;stroke-linecap:round;stroke-miterlimit:10;}
	.st2{fill:#FFFFFF;}
</style>
<path class="st0" d="M14,16H2c-1.1,0-2-0.9-2-2V2c0-1.1,0.9-2,2-2h12c1.1,0,2,0.9,2,2v12C16,15.1,15.1,16,14,16z"/>
<path class="st1" d="M12.7,2.5c-0.4,2.3-2.3,4-4.7,4s-4.3-1.8-4.7-4"/>
<path class="st2" d="M11.1,5.7C10.3,6.3,9.2,6.8,8,6.8S5.7,6.3,4.9,5.7C4.8,6.2,4.7,6.8,4.7,7.3c0,2.6,1.2,4.8,2.9,5.1V7.9
	c0-0.2,0.2-0.4,0.4-0.4c0.2,0,0.4,0.2,0.4,0.4v4.5c1.6-0.3,2.9-2.4,2.9-5.1C11.3,6.8,11.2,6.2,11.1,5.7z"/>
<ellipse class="st2" cx="8" cy="4.6" rx="1.9" ry="1"/>
<path class="st1" d="M9.8,2.9c0,1-0.8,1.8-1.8,1.8S6.2,3.9,6.2,2.9"/>
<circle class="st2" cx="8" cy="3.8" r="0.7"/>
<line class="st1" x1="2.5" y1="8.4" x2="6.2" y2="8.4"/>
<line class="st1" x1="9.8" y1="8.4" x2="13.5" y2="8.4"/>
<path class="st1" d="M6.5,10.1C5,10.6,3.9,12,3.6,13.5"/>
<path class="st1" d="M12.4,13.5c-0.2-1.5-1.3-2.9-2.9-3.4"/>
<path class="st1" d="M6.2,10.2"/>
</svg>
