<?xml version="1.0" encoding="utf-8"?>
<!-- Generator: Adobe Illustrator 24.1.2, SVG Export Plug-In . SVG Version: 6.00 Build 0)  -->
<svg version="1.1" id="Layer_1" xmlns="http://www.w3.org/2000/svg" xmlns:xlink="http://www.w3.org/1999/xlink" x="0px" y="0px" 
	 viewBox="0 0 16 16" style="enable-background:new 0 0 16 16;" xml:space="preserve">
<style type="text/css">
	.st0{fill:#B75700;}
	.st1{fill:none;stroke:#FFFFFF;stroke-miterlimit:10;}
	.st2{fill:none;stroke:#FFFFFF;stroke-width:1.5;stroke-miterlimit:10;}
</style>
<path class="st0" d="M14,16H2c-1.1,0-2-0.9-2-2V2c0-1.1,0.9-2,2-2h12c1.1,0,2,0.9,2,2v12C16,15.1,15.1,16,14,16z"/>
<circle class="st1" cx="4" cy="4" r="1.5"/>
<circle class="st1" cx="4" cy="12" r="1.5"/>
<circle class="st1" cx="12" cy="12" r="1.5"/>
<line class="st2" x1="4" y1="5.5" x2="4" y2="10.5"/>
<line class="st2" x1="12" y1="6.1" x2="12" y2="10.5"/>
<line class="st2" x1="5.5" y1="4" x2="10" y2="4"/>
<path class="st2" d="M12,6.3C12,5,11,4,9.8,4"/>
</svg>
