<?xml version="1.0" encoding="utf-8"?>
<!-- Generator: Adobe Illustrator 24.1.2, SVG Export Plug-In . SVG Version: 6.00 Build 0)  -->
<svg version="1.1" id="Layer_1" xmlns="http://www.w3.org/2000/svg" xmlns:xlink="http://www.w3.org/1999/xlink" x="0px" y="0px"
	 viewBox="0 0 16 16" style="enable-background:new 0 0 16 16;" xml:space="preserve">
<style type="text/css">
	.st0{fill:#1966B3;}
	.st1{fill:none;stroke:#FFFFFF;stroke-width:1.5;stroke-miterlimit:10;}
	.st2{fill:none;stroke:#FFFFFF;stroke-width:0.5;stroke-miterlimit:10;}
</style>
<path class="st0" d="M14,16H2c-1.1,0-2-0.9-2-2V2c0-1.1,0.9-2,2-2h12c1.1,0,2,0.9,2,2v12C16,15.1,15.1,16,14,16z"/>
<polyline class="st1" points="11.2,5.8 7.4,9.6 4.9,7.1 "/>
<path class="st2" d="M12.7,13.5H3.3c-0.5,0-0.8-0.3-0.8-0.8V3.3c0-0.5,0.3-0.8,0.8-0.8h9.3c0.5,0,0.8,0.3,0.8,0.8v9.3
	C13.5,13.2,13.2,13.5,12.7,13.5z"/>
</svg>
